<?xml version="1.0" encoding="UTF-8" standalone="no"?>
<!-- Generator: Adobe Illustrator 15.0.0, SVG Export Plug-In . SVG Version: 6.00 Build 0)  -->

<svg
   xmlns:dc="http://purl.org/dc/elements/1.1/"
   xmlns:cc="http://creativecommons.org/ns#"
   xmlns:rdf="http://www.w3.org/1999/02/22-rdf-syntax-ns#"
   xmlns:svg="http://www.w3.org/2000/svg"
   xmlns="http://www.w3.org/2000/svg"
   xmlns:sodipodi="http://sodipodi.sourceforge.net/DTD/sodipodi-0.dtd"
   xmlns:inkscape="http://www.inkscape.org/namespaces/inkscape"
   version="1.0"
   id="Layer_1"
   x="0px"
   y="0px"
   width="8.673px"
   height="18.944px"
   viewBox="0 0 8.673 18.944"
   enable-background="new 0 0 8.673 18.944"
   xml:space="preserve"
   inkscape:version="0.91 r13725"
   sodipodi:docname="facebook.svg"><metadata
   id="metadata9"><rdf:RDF><cc:Work
       rdf:about=""><dc:format>image/svg+xml</dc:format><dc:type
         rdf:resource="http://purl.org/dc/dcmitype/StillImage" /><dc:title></dc:title></cc:Work></rdf:RDF></metadata><defs
   id="defs7" /><sodipodi:namedview
   pagecolor="#ffffff"
   bordercolor="#666666"
   borderopacity="1"
   objecttolerance="10"
   gridtolerance="10"
   guidetolerance="10"
   inkscape:pageopacity="0"
   inkscape:pageshadow="2"
   inkscape:window-width="701"
   inkscape:window-height="480"
   id="namedview5"
   showgrid="false"
   inkscape:zoom="12.45777"
   inkscape:cx="4.3365002"
   inkscape:cy="9.4720001"
   inkscape:window-x="75"
   inkscape:window-y="156"
   inkscape:window-maximized="0"
   inkscape:current-layer="Layer_1" />
<path
   d="M6.275,3.357c0.799,0,1.599,0,2.398,0c0-1.119,0-2.238,0-3.357c-0.959,0-1.92,0-2.878,0C2.656,0.181,1.54,2.387,1.948,6.115  H0v3.517h1.958c0,3.104,0,6.208,0,9.312c1.279,0,2.558,0,3.837,0c0-3.104,0-6.208,0-9.312h2.857V6.115H5.786  C5.765,5.07,5.75,3.709,6.275,3.357z"
   id="path3"
   style="fill:#d22856;fill-opacity:1;opacity:1" />
</svg>