<?xml version="1.0" encoding="UTF-8" standalone="no"?>
<!-- Generator: Adobe Illustrator 15.0.0, SVG Export Plug-In . SVG Version: 6.00 Build 0)  -->

<svg
   xmlns:dc="http://purl.org/dc/elements/1.1/"
   xmlns:cc="http://creativecommons.org/ns#"
   xmlns:rdf="http://www.w3.org/1999/02/22-rdf-syntax-ns#"
   xmlns:svg="http://www.w3.org/2000/svg"
   xmlns="http://www.w3.org/2000/svg"
   xmlns:sodipodi="http://sodipodi.sourceforge.net/DTD/sodipodi-0.dtd"
   xmlns:inkscape="http://www.inkscape.org/namespaces/inkscape"
   version="1.0"
   id="Layer_1"
   x="0px"
   y="0px"
   width="26.096px"
   height="33.803px"
   viewBox="0 0 26.096 33.803"
   enable-background="new 0 0 26.096 33.803"
   xml:space="preserve"
   inkscape:version="0.91 r13725"
   sodipodi:docname="htmlacademy.svg"><metadata
   id="metadata5251"><rdf:RDF><cc:Work
       rdf:about=""><dc:format>image/svg+xml</dc:format><dc:type
         rdf:resource="http://purl.org/dc/dcmitype/StillImage" /><dc:title></dc:title></cc:Work></rdf:RDF></metadata><defs
   id="defs5249" /><sodipodi:namedview
   pagecolor="#ffffff"
   bordercolor="#666666"
   borderopacity="1"
   objecttolerance="10"
   gridtolerance="10"
   guidetolerance="10"
   inkscape:pageopacity="0"
   inkscape:pageshadow="2"
   inkscape:window-width="701"
   inkscape:window-height="480"
   id="namedview5247"
   showgrid="false"
   inkscape:zoom="6.9816286"
   inkscape:cx="13.048"
   inkscape:cy="16.901501"
   inkscape:window-x="0"
   inkscape:window-y="0"
   inkscape:window-maximized="0"
   inkscape:current-layer="Layer_1" />
<g
   id="g5239"
   style="fill:#d22856;fill-opacity:1">
	<path
   d="M13.047,0L0,1.456v24.475l13.047,7.835v0.037l13.049-7.872V1.557L13.047,0z M24.037,24.745l-10.989,6.622v-7.385   l-6.369-2.858v-0.021l6.373-2.816v-0.02h0.001v0.011l6.366,2.814v-0.006l0.01,0.006v-1.234l-6.366-2.813l-0.003,0.003l-0.007-0.003   v0.011h-0.001v-0.003L6.679,19.87v-1.235l0,0l5.848-2.584l-1.385-0.622l-4.463,1.973v-1.234l3.077-1.36l-1.385-0.622l-1.692,0.748   v-1.234l0.306-0.135l-3.73-1.674l9.793-4.248V2.084l10.989,1.321V24.745z"
   id="path5241"
   style="fill:#d22856;fill-opacity:1" />
	<polygon
   points="19.428,17.389 14.958,15.414 13.57,16.035 19.428,18.624  "
   id="polygon5243"
   style="fill:#d22856;fill-opacity:1" />
	<polygon
   points="19.428,14.921 17.734,14.172 16.346,14.793 19.428,16.155  "
   id="polygon5245"
   style="fill:#d22856;fill-opacity:1" />
</g>
</svg>