<svg xmlns="http://www.w3.org/2000/svg" version="1" width="26.096" height="33.803" viewBox="0 0 26.096 33.803"><g fill="#283645"><path d="M13.047 0l-13.047 1.456v24.475l13.047 7.835v.037l13.049-7.872v-24.374l-13.049-1.557zm10.99 24.745l-10.989 6.622v-7.385l-6.369-2.858v-.021l6.373-2.816v-.02h.001v.011l6.366 2.814v-.006l.01.006v-1.234l-6.366-2.813-.003.003-.007-.003v.011h-.001v-.003l-6.373 2.817v-1.235l5.848-2.584-1.385-.622-4.463 1.973v-1.234l3.077-1.36-1.385-.622-1.692.748v-1.234l.306-.135-3.73-1.674 9.793-4.248v-5.559l10.989 1.321v21.34z"/><path d="M19.428 17.389l-4.47-1.975-1.388.621 5.858 2.589z"/><path d="M19.428 14.921l-1.694-.749-1.388.621 3.082 1.362z"/></g></svg>