<svg xmlns="http://www.w3.org/2000/svg" version="1" width="78.673" height="63.788" viewBox="0 0 78.673 63.788"><g fill="#bec2c6"><path d="M72.354 39.632c-2.797-2.401-6.636-3.604-11.518-3.604h-5.67c.473-4.081 1.278-7.397 2.421-9.948 1.141-2.551 2.854-5.044 5.139-7.477 2.363-2.51 4.685-4.531 6.97-6.063 2.283-1.53 5.274-3.356 8.978-5.477l-4.254-7.063c-2.441 1.495-5.474 3.42-9.096 5.779-3.623 2.359-7.048 5.228-10.276 8.607-3.151 3.302-5.83 7.056-8.033 11.261-2.206 4.204-3.308 8.861-3.308 13.97 0 7.232 1.456 13.07 4.371 17.511 2.913 4.44 7.755 6.661 14.529 6.661 4.33 0 7.737-1.436 10.218-4.311s3.721-5.967 3.721-9.273c0-4.646-1.399-8.171-4.192-10.573z"/><path d="M19.019 18.603c2.362-2.51 4.685-4.531 6.97-6.063 2.283-1.53 5.274-3.356 8.978-5.477l-4.254-7.063c-2.441 1.495-5.475 3.42-9.095 5.779-3.624 2.359-7.05 5.228-10.278 8.607-3.149 3.302-5.828 7.056-8.032 11.261-2.205 4.204-3.308 8.861-3.308 13.969 0 7.232 1.457 13.07 4.371 17.511 2.912 4.44 7.756 6.661 14.529 6.661 4.33 0 7.737-1.436 10.218-4.311s3.722-5.967 3.722-9.273c0-4.646-1.399-8.17-4.194-10.572-2.796-2.401-6.635-3.604-11.517-3.604h-5.671c.473-4.081 1.3-7.416 2.481-10.007 1.181-2.589 2.873-5.063 5.08-7.418z"/></g></svg>