<?xml version="1.0" encoding="UTF-8" standalone="no"?>
<!-- Generator: Adobe Illustrator 15.0.0, SVG Export Plug-In . SVG Version: 6.00 Build 0)  -->

<svg
   xmlns:dc="http://purl.org/dc/elements/1.1/"
   xmlns:cc="http://creativecommons.org/ns#"
   xmlns:rdf="http://www.w3.org/1999/02/22-rdf-syntax-ns#"
   xmlns:svg="http://www.w3.org/2000/svg"
   xmlns="http://www.w3.org/2000/svg"
   xmlns:sodipodi="http://sodipodi.sourceforge.net/DTD/sodipodi-0.dtd"
   xmlns:inkscape="http://www.inkscape.org/namespaces/inkscape"
   version="1.0"
   id="Layer_1"
   x="0px"
   y="0px"
   width="78.673px"
   height="63.788px"
   viewBox="0 0 78.673 63.788"
   enable-background="new 0 0 78.673 63.788"
   xml:space="preserve"
   inkscape:version="0.91 r13725"
   sodipodi:docname="quotes.svg"><metadata
   id="metadata13"><rdf:RDF><cc:Work
       rdf:about=""><dc:format>image/svg+xml</dc:format><dc:type
         rdf:resource="http://purl.org/dc/dcmitype/StillImage" /></cc:Work></rdf:RDF></metadata><defs
   id="defs11" /><sodipodi:namedview
   pagecolor="#ffffff"
   bordercolor="#666666"
   borderopacity="1"
   objecttolerance="10"
   gridtolerance="10"
   guidetolerance="10"
   inkscape:pageopacity="0"
   inkscape:pageshadow="2"
   inkscape:window-width="701"
   inkscape:window-height="480"
   id="namedview9"
   showgrid="false"
   inkscape:zoom="3.6997555"
   inkscape:cx="39.336498"
   inkscape:cy="31.623711"
   inkscape:window-x="0"
   inkscape:window-y="0"
   inkscape:window-maximized="0"
   inkscape:current-layer="Layer_1" />
<g
   id="g3"
   style="fill:#bec2c6;fill-opacity:1">
	<path
   d="M72.354,39.632c-2.797-2.401-6.636-3.604-11.518-3.604h-5.67c0.473-4.081,1.278-7.397,2.421-9.948   c1.141-2.551,2.854-5.044,5.139-7.477c2.363-2.51,4.685-4.531,6.97-6.063c2.283-1.53,5.274-3.356,8.978-5.477L74.42,0   c-2.441,1.495-5.474,3.42-9.096,5.779c-3.623,2.359-7.048,5.228-10.276,8.607c-3.151,3.302-5.83,7.056-8.033,11.261   c-2.206,4.204-3.308,8.861-3.308,13.97c0,7.232,1.456,13.07,4.371,17.511c2.913,4.44,7.755,6.661,14.529,6.661   c4.33,0,7.737-1.436,10.218-4.311s3.721-5.967,3.721-9.273C76.546,45.559,75.147,42.034,72.354,39.632z"
   id="path5"
   style="fill:#bec2c6;fill-opacity:1" />
	<path
   d="M19.019,18.603c2.362-2.51,4.685-4.531,6.97-6.063c2.283-1.53,5.274-3.356,8.978-5.477L30.713,0   c-2.441,1.495-5.475,3.42-9.095,5.779c-3.624,2.359-7.05,5.228-10.278,8.607c-3.149,3.302-5.828,7.056-8.032,11.261   C1.103,29.851,0,34.508,0,39.616c0,7.232,1.457,13.07,4.371,17.511c2.912,4.44,7.756,6.661,14.529,6.661   c4.33,0,7.737-1.436,10.218-4.311c2.481-2.875,3.722-5.967,3.722-9.273c0-4.646-1.399-8.17-4.194-10.572   c-2.796-2.401-6.635-3.604-11.517-3.604h-5.671c0.473-4.081,1.3-7.416,2.481-10.007C15.12,23.432,16.812,20.958,19.019,18.603z"
   id="path7"
   style="fill:#bec2c6;fill-opacity:1" />
</g>
</svg>