<?xml version="1.0" encoding="UTF-8" standalone="no"?>
<!-- Generator: Adobe Illustrator 15.0.0, SVG Export Plug-In . SVG Version: 6.00 Build 0)  -->

<svg
   xmlns:dc="http://purl.org/dc/elements/1.1/"
   xmlns:cc="http://creativecommons.org/ns#"
   xmlns:rdf="http://www.w3.org/1999/02/22-rdf-syntax-ns#"
   xmlns:svg="http://www.w3.org/2000/svg"
   xmlns="http://www.w3.org/2000/svg"
   xmlns:sodipodi="http://sodipodi.sourceforge.net/DTD/sodipodi-0.dtd"
   xmlns:inkscape="http://www.inkscape.org/namespaces/inkscape"
   version="1.0"
   id="Layer_1"
   x="0px"
   y="0px"
   width="17.5px"
   height="14.663px"
   viewBox="0 0 17.5 14.663"
   enable-background="new 0 0 17.5 14.663"
   xml:space="preserve"
   inkscape:version="0.91 r13725"
   sodipodi:docname="twitter.svg"><metadata
   id="metadata4147"><rdf:RDF><cc:Work
       rdf:about=""><dc:format>image/svg+xml</dc:format><dc:type
         rdf:resource="http://purl.org/dc/dcmitype/StillImage" /><dc:title></dc:title></cc:Work></rdf:RDF></metadata><defs
   id="defs4145" /><sodipodi:namedview
   pagecolor="#ffffff"
   bordercolor="#666666"
   borderopacity="1"
   objecttolerance="10"
   gridtolerance="10"
   guidetolerance="10"
   inkscape:pageopacity="0"
   inkscape:pageshadow="2"
   inkscape:window-width="701"
   inkscape:window-height="480"
   id="namedview4143"
   showgrid="false"
   inkscape:zoom="16.094933"
   inkscape:cx="8.75"
   inkscape:cy="7.3315001"
   inkscape:window-x="0"
   inkscape:window-y="0"
   inkscape:window-maximized="0"
   inkscape:current-layer="Layer_1" />
<g
   id="W6EeEF_1_"
   style="fill:#d22856;fill-opacity:1">
	<g
   id="g4139"
   style="fill:#d22856;fill-opacity:1">
		<path
   fill-rule="evenodd"
   clip-rule="evenodd"
   d="M11.283,0.153c1.736-0.485,3.074,0.263,3.685,1.151    c0.694-0.226,1.372-0.47,2.072-0.691c-0.004,0.841-0.538,1.478-0.883,1.727C16.861,2.506,17.5,1.86,17.5,1.86    c-0.175,0.976-1.035,1.746-1.611,1.977C15.65,10.429,12.617,14.793,5.507,14.66c-0.538,0,0.077,0-0.46,0    c-0.422,0-4.29-0.45-5.047-1.843c2.341,0.192,4.011-0.412,4.835-1.15c-0.989-0.293-2.761-0.464-3.07-2.881    c0.362,0.105,0.583,0.223,1.228,0.117C1.757,8.067,0.385,7.366,0.461,5.218c0.294,0.32,1.1,0.523,1.381,0.461    c-0.725-0.235-2.03-3.281-0.921-4.836C2.794,2.654,4.769,4.364,8.29,4.528C8.506,2.288,9.461,0.787,11.283,0.153z"
   id="path4141"
   style="fill:#d22856;fill-opacity:1" />
	</g>
</g>
</svg>